<svg width="48" height="48" viewBox="0 0 600 600" fill="none" xmlns="http://www.w3.org/2000/svg">
<rect width="600" height="600" fill="black"/>
<path d="M415.823 114.405C422.724 103.596 419.598 89.127 408.174 83.2984C362.38 59.9334 310.094 51.7482 258.989 60.3073C200.219 70.1503 147.186 101.439 110.15 148.121C73.1136 194.802 54.705 253.561 58.4848 313.03C62.2647 372.499 87.9643 428.454 130.613 470.071C173.261 511.688 229.828 536.011 289.372 538.334C348.917 540.657 407.206 520.815 452.968 482.647C498.729 444.48 528.71 390.697 537.112 331.703C544.417 280.404 534.955 228.335 510.476 183.126C504.369 171.849 489.828 169.077 479.191 176.241C468.554 183.405 465.878 197.787 471.723 209.202C489.925 244.753 496.817 285.243 491.133 325.155C484.352 372.769 460.155 416.177 423.221 446.982C386.287 477.788 339.241 493.802 291.183 491.927C243.125 490.052 197.47 470.421 163.048 436.832C128.626 403.243 107.884 358.082 104.834 310.084C101.783 262.086 116.64 214.663 146.533 176.986C176.425 139.309 219.227 114.056 266.661 106.112C306.422 99.4523 347.069 105.352 383.054 122.678C394.609 128.242 408.921 125.215 415.823 114.405Z" fill="white"/>
<path d="M465.74 162.815C475.584 154.596 476.974 139.859 467.845 130.852C463.983 127.043 459.994 123.365 455.884 119.824C446.167 111.455 431.592 114.035 424.197 124.513C416.802 134.99 419.413 149.383 428.934 157.975C429.967 158.907 430.991 159.85 432.003 160.805C441.338 169.599 455.895 171.035 465.74 162.815Z" fill="white"/>
<circle cx="298.758" cy="300" r="177.376" fill="white"/>
</svg>
